<?xml version="1.0" encoding="iso-8859-1"?>
<!-- Generator: Adobe Illustrator 19.0.0, SVG Export Plug-In . SVG Version: 6.00 Build 0)  -->
<svg version="1.1" id="Layer_1" xmlns="http://www.w3.org/2000/svg" xmlns:xlink="http://www.w3.org/1999/xlink" x="0px" y="0px"
	 viewBox="0 0 511.999 511.999" style="enable-background:new 0 0 511.999 511.999;" xml:space="preserve">
<g>
	<path style="fill:#E07188;" d="M443.562,130.957h-31.261c0,49.749,33.668,94.424,87.865,116.59l11.832-28.935
		C469.786,201.348,443.562,167.761,443.562,130.957z"/>
	<path style="fill:#E07188;" d="M0,218.614l11.832,28.935c25.665-10.495,47.406-26.513,62.876-46.321
		c16.348-20.934,24.99-45.233,24.99-70.272H68.437C68.438,167.761,42.214,201.35,0,218.614z"/>
	<rect x="5.917" y="323.735" style="fill:#E07188;" width="62.521" height="31.261"/>
	<path style="fill:#E07188;" d="M344.573,241.433c40.883-28.221,67.731-75.386,67.731-128.711h-31.261
		c0,68.948-56.094,125.042-125.042,125.042S130.959,181.67,130.959,112.722H99.698c0,53.325,26.849,100.49,67.731,128.711v82.298
		h-57.311v31.261h291.766v-31.261h-57.311V241.433z M313.313,323.731h-41.681v-55.486c14.57-1.454,28.558-4.913,41.681-10.102
		V323.731z M198.69,258.143c13.123,5.189,27.111,8.65,41.681,10.102v55.486H198.69V258.143z"/>
</g>
<g>
	<rect x="443.567" y="323.735" style="fill:#E02753;" width="62.521" height="31.261"/>
	<path style="fill:#E02753;" d="M443.562,130.957h-31.261c0,49.749,33.668,94.424,87.865,116.59l11.832-28.935
		C469.786,201.348,443.562,167.761,443.562,130.957z"/>
	<path style="fill:#E02753;" d="M344.573,241.433c40.883-28.221,67.731-75.386,67.731-128.711h-31.261
		c0,68.948-56.094,125.042-125.042,125.042v117.227h145.883v-31.261h-57.311V241.433z M313.313,323.731h-41.681v-55.486
		c14.57-1.454,28.558-4.913,41.681-10.102V323.731z"/>
	<rect x="68.44" y="58.016" style="fill:#E02753;" width="62.521" height="395.968"/>
</g>
<rect x="381.046" y="58.016" style="fill:#C5142C;" width="62.521" height="395.968"/>
<g>
</g>
<g>
</g>
<g>
</g>
<g>
</g>
<g>
</g>
<g>
</g>
<g>
</g>
<g>
</g>
<g>
</g>
<g>
</g>
<g>
</g>
<g>
</g>
<g>
</g>
<g>
</g>
<g>
</g>
</svg>
