<?xml version="1.0" encoding="iso-8859-1"?>
<!-- Generator: Adobe Illustrator 19.0.0, SVG Export Plug-In . SVG Version: 6.00 Build 0)  -->
<svg version="1.1" id="Layer_1" xmlns="http://www.w3.org/2000/svg" xmlns:xlink="http://www.w3.org/1999/xlink" x="0px" y="0px"
	 viewBox="0 0 512 512" style="enable-background:new 0 0 512 512;" xml:space="preserve">
<g>
	<g>
		<path d="M490.501,31.334l-9.84-9.841C466.347,7.179,447.513-0.445,427.544,0.02c-19.937,0.467-38.422,8.965-52.049,23.931
			c-0.064,0.071-0.126,0.142-0.188,0.214L46.22,409.99l-2.6-2.601c-4.827-4.827-11.244-7.483-18.069-7.483
			s-13.244,2.658-18.073,7.486c-9.964,9.965-9.964,26.177,0,36.141l60.984,60.985C73.288,509.342,79.706,512,86.533,512
			c6.827,0,13.245-2.658,18.07-7.484c4.827-4.827,7.486-11.244,7.486-18.071s-2.659-13.244-7.484-18.07l-2.599-2.599
			l385.823-329.085c0.073-0.061,0.145-0.125,0.215-0.189c14.965-13.628,23.464-32.115,23.931-52.053
			C512.439,64.51,504.814,45.647,490.501,31.334z M388.631,35.727c6.779-7.409,15.118-12.703,24.289-15.581
			c-10.816,27.402-27.465,50.158-50.632,69.222c-13.691,11.266-24.897,16.299-36.051,19.507L388.631,35.727z M92.129,492.041
			c-1.495,1.495-3.482,2.318-5.597,2.318c-2.116,0-4.103-0.823-5.598-2.317l-60.981-60.984c-3.086-3.086-3.086-8.108-0.001-11.193
			c1.495-1.496,3.485-2.319,5.599-2.319s4.101,0.823,5.595,2.317l60.984,60.985c1.495,1.495,2.319,3.482,2.319,5.597
			C94.448,488.559,93.625,490.546,92.129,492.041z M89.492,453.261l-30.759-30.759l12.415-14.555l32.9,32.899L89.492,453.261z
			 M117.511,429.363l-34.879-34.88l25.049-29.367l39.199,39.197L117.511,429.363z M160.343,392.829l-41.179-41.178l17.272-20.25
			l44.155,44.157L160.343,392.829z M275.573,294.547c5.178-28.468,18.361-60.494,49.355-81.951
			c17.654-12.223,38.375-12.991,62.223-13.22L275.573,294.547z M476.267,123.365l-68.026,58.022
			c-5.89,0.208-11.783,0.268-17.509,0.315c-27.161,0.228-52.815,0.442-75.847,16.39c-43.59,30.178-56.431,77.585-59.285,113.489
			l-61.545,52.494l-46.135-46.136l159.09-186.518c2.37-0.535,4.734-1.048,7.041-1.536c17.714-3.748,36.031-7.623,59.448-26.893
			c28.027-23.064,47.407-51.001,59.11-85.235c13.358,0.808,25.831,6.464,35.577,16.21l9.84,9.841
			c10.87,10.87,16.664,25.157,16.311,40.229C493.986,99.061,487.569,113.023,476.267,123.365z"/>
	</g>
</g>
<g>
</g>
<g>
</g>
<g>
</g>
<g>
</g>
<g>
</g>
<g>
</g>
<g>
</g>
<g>
</g>
<g>
</g>
<g>
</g>
<g>
</g>
<g>
</g>
<g>
</g>
<g>
</g>
<g>
</g>
</svg>
