<?xml version="1.0" encoding="iso-8859-1"?>
<!-- Generator: Adobe Illustrator 19.0.0, SVG Export Plug-In . SVG Version: 6.00 Build 0)  -->
<svg version="1.1" id="Layer_1" xmlns="http://www.w3.org/2000/svg" xmlns:xlink="http://www.w3.org/1999/xlink" x="0px" y="0px"
	 viewBox="0 0 512 512" style="enable-background:new 0 0 512 512;" xml:space="preserve">
<g>
	<g>
		<path d="M495.328,93.174h-73.367l-6.695-29.611c-1.718-7.599-8.47-12.994-16.261-12.994h-97.806
			c-7.791,0-14.543,5.395-16.261,12.994l-6.696,29.611H16.672C7.464,93.174,0,100.639,0,109.846v334.913
			c0,9.207,7.464,16.672,16.672,16.672h478.657c9.207,0,16.672-7.464,16.672-16.672V109.846
			C512,100.638,504.536,93.174,495.328,93.174z M69.914,186.609c-13.751,0-24.897-11.148-24.897-24.897s11.147-24.897,24.897-24.897
			c13.751,0,24.897,11.148,24.897,24.897C94.811,175.462,83.663,186.609,69.914,186.609z M289.343,415.38
			c-75.479,0-136.884-61.406-136.884-136.884c0-75.479,61.406-136.884,136.884-136.884s136.884,61.406,136.884,136.884
			C426.227,353.975,364.822,415.38,289.343,415.38z"/>
	</g>
</g>
<g>
	<g>
		<path d="M289.343,166.695c-61.648,0-111.801,50.154-111.801,111.801c0,61.648,50.154,111.802,111.801,111.802
			s111.803-50.155,111.803-111.802C401.146,216.848,350.991,166.695,289.343,166.695z M289.343,356.955
			c-43.263,0-78.458-35.197-78.458-78.459c0-43.263,35.196-78.458,78.458-78.458c43.263,0,78.46,35.196,78.46,78.458
			C367.803,321.759,332.606,356.955,289.343,356.955z"/>
	</g>
</g>
<g>
</g>
<g>
</g>
<g>
</g>
<g>
</g>
<g>
</g>
<g>
</g>
<g>
</g>
<g>
</g>
<g>
</g>
<g>
</g>
<g>
</g>
<g>
</g>
<g>
</g>
<g>
</g>
<g>
</g>
</svg>
