<?xml version="1.0" encoding="iso-8859-1"?>
<!-- Generator: Adobe Illustrator 19.0.0, SVG Export Plug-In . SVG Version: 6.00 Build 0)  -->
<svg version="1.1" id="Layer_1" xmlns="http://www.w3.org/2000/svg" xmlns:xlink="http://www.w3.org/1999/xlink" x="0px" y="0px"
	 viewBox="0 0 512 512" style="enable-background:new 0 0 512 512;" xml:space="preserve">
<g>
	<g>
		<g>
			<path d="M256,186.463c-53.88,0-97.713,43.834-97.713,97.713c0,53.88,43.834,97.713,97.713,97.713s97.713-43.834,97.713-97.713
				S309.88,186.463,256,186.463z M256,350.461c-36.55,0-66.284-29.735-66.284-66.284s29.735-66.284,66.284-66.284
				s66.284,29.735,66.284,66.284S292.55,350.461,256,350.461z"/>
			<path d="M256,256.575c-15.219,0-27.601,12.382-27.601,27.601c0,15.219,12.382,27.602,27.601,27.602
				c15.219,0,27.601-12.382,27.601-27.602C283.601,268.956,271.219,256.575,256,256.575z"/>
			<path d="M457.188,106.847h-91.651l-18.672-44.496c-3.015-7.183-10.045-11.858-17.835-11.858H182.971
				c-7.789,0-14.821,4.674-17.835,11.858l-18.672,44.496h-17.532V81.991c0-10.682-8.66-19.341-19.341-19.341H54.812
				c-10.682,0-19.341,8.66-19.341,19.341v28.391C14.765,118.217,0,138.242,0,161.659v245.035c0,30.224,24.589,54.812,54.812,54.812
				h402.376c30.224,0,54.812-24.589,54.812-54.812V161.659C512,131.435,487.411,106.847,457.188,106.847z M195.83,89.177h120.341
				l7.414,17.669H188.415L195.83,89.177z M256,420.572c-75.21,0-136.395-61.187-136.395-136.395
				c0-75.21,61.187-136.395,136.395-136.395s136.395,61.187,136.395,136.395C392.395,359.385,331.21,420.572,256,420.572z"/>
		</g>
	</g>
</g>
<g>
</g>
<g>
</g>
<g>
</g>
<g>
</g>
<g>
</g>
<g>
</g>
<g>
</g>
<g>
</g>
<g>
</g>
<g>
</g>
<g>
</g>
<g>
</g>
<g>
</g>
<g>
</g>
<g>
</g>
</svg>
