<?xml version="1.0" encoding="iso-8859-1"?>
<!-- Generator: Adobe Illustrator 19.0.0, SVG Export Plug-In . SVG Version: 6.00 Build 0)  -->
<svg version="1.1" id="Layer_1" xmlns="http://www.w3.org/2000/svg" xmlns:xlink="http://www.w3.org/1999/xlink" x="0px" y="0px"
	 viewBox="0 0 512 512" style="enable-background:new 0 0 512 512;" xml:space="preserve">
<circle style="fill:#273B7A;" cx="256" cy="256" r="256"/>
<path style="fill:#121149;" d="M331.731,500.608c100.952-31.22,175.194-123.214,180.003-233.238L375.024,130.662L231.291,347.367
	l15.372,15.372l-20.908,31.894L331.731,500.608z"/>
<path style="fill:#FF7F4F;" d="M241.281,395.005l105.753-76.155c5.77-4.155,7.078-12.202,2.924-17.972L228.2,131.803
	c-4.155-5.77-12.202-7.078-17.972-2.924l-105.753,76.155c-5.77,4.155-7.078,12.202-2.924,17.972L223.31,392.082
	C227.464,397.852,235.511,399.16,241.281,395.005z"/>
<path style="fill:#FFFFFF;" d="M235.203,360.555h130.319c7.111,0,12.874-5.765,12.874-12.874V139.326
	c0-7.111-5.765-12.874-12.874-12.874H235.203c-7.111,0-12.874,5.765-12.874,12.874v208.355
	C222.329,354.79,228.093,360.555,235.203,360.555z"/>
<path style="fill:#D0D1D3;" d="M365.523,126.45h-64.702v234.105h64.7c7.111,0,12.874-5.765,12.874-12.874V139.326
	C378.397,132.215,372.633,126.45,365.523,126.45z"/>
<polygon style="fill:#C92F00;" points="300.363,298.87 270.41,243.502 300.363,188.135 330.316,243.502 "/>
<polygon style="fill:#930000;" points="300.822,188.985 300.822,298.02 330.316,243.502 "/>
<polygon style="fill:#C92F00;" points="246.763,178.271 237.918,161.921 246.763,145.572 255.609,161.921 "/>
<polygon style="fill:#930000;" points="353.963,341.23 345.117,324.88 353.963,308.531 362.806,324.88 "/>
<g>
</g>
<g>
</g>
<g>
</g>
<g>
</g>
<g>
</g>
<g>
</g>
<g>
</g>
<g>
</g>
<g>
</g>
<g>
</g>
<g>
</g>
<g>
</g>
<g>
</g>
<g>
</g>
<g>
</g>
</svg>
