<?xml version="1.0" encoding="iso-8859-1"?>
<!-- Generator: Adobe Illustrator 19.0.0, SVG Export Plug-In . SVG Version: 6.00 Build 0)  -->
<svg version="1.1" id="Layer_1" xmlns="http://www.w3.org/2000/svg" xmlns:xlink="http://www.w3.org/1999/xlink" x="0px" y="0px"
	 viewBox="0 0 460 460" style="enable-background:new 0 0 460 460;" xml:space="preserve">
<g>
	<path style="fill:#096C80;" d="M230,0C102.974,0,0,102.975,0,230c0,100.764,64.798,186.394,154.997,217.493
		C178.505,455.599,203.739,460,230,460l229.196-210.804C459.719,242.865,460,236.466,460,230C460,102.975,357.025,0,230,0z"/>
	<path style="fill:#064855;" d="M230,20v427.492h75.004c84.406-29.106,146.562-105.968,154.192-198.296L230,20z"/>
	<polygon style="fill:#FFC240;" points="155,188 155,218 240,228 240,178 	"/>
	<polygon style="fill:#FF984C;" points="305,188 230,178 230,228 305,218 	"/>
	<polygon style="fill:#FFD170;" points="202.5,88 202.5,118 240,128 240,78 	"/>
	<polygon style="fill:#FFC240;" points="257.5,88 230,78 230,128 257.5,118 	"/>
	<polygon style="fill:#2DB8D4;" points="230,88 239.98,53 229.962,20 202.5,88 	"/>
	<polygon style="fill:#096C80;" points="257.5,88 229.962,20 229.96,88 	"/>
	<path style="fill:#FF984C;" d="M155,388v59.481c12.076,4.164,24.609,7.345,37.5,9.462l10-73.355L155,388z"/>
	<path style="fill:#FFC240;" d="M240,378l-47.5,5.588v73.355C204.704,458.948,217.228,460,230,460L240,378z"/>
	<path style="fill:#FF6E36;" d="M305,388l-47.5-5l10,73.944c12.891-2.117,25.424-5.299,37.5-9.462V388z"/>
	<path style="fill:#FF984C;" d="M230,378v82c12.772,0,25.296-1.052,37.5-3.056V383L230,378z"/>
	<polygon style="fill:#FFC240;" points="145,238 145,368 240,378 240,228 	"/>
	<polygon style="fill:#FF984C;" points="315,238 230,228 230,378 315,368 	"/>
	<polygon style="fill:#FFE1A0;" points="185,258 185,348 230,348 240,303 230,258 	"/>
	<rect x="230" y="258" style="fill:#FFC240;" width="45" height="90"/>
	<polygon style="fill:#2DB8D4;" points="202.538,118 155,188 230,188 240,158 230,118 	"/>
	<polygon style="fill:#096C80;" points="257.538,118 229.998,118 229.995,188 305,188 	"/>
	<path style="fill:#FFFFFF;" d="M185,303c0,24.853,20.147,45,45,45l10-45l-10-45C205.147,258,185,278.147,185,303z"/>
	<path style="fill:#C4F5FF;" d="M230,258v90c24.853,0,45-20.147,45-45S254.853,258,230,258z"/>
	<rect x="165" y="228" style="fill:#FF984C;" width="20" height="150"/>
	<rect x="275" y="228" style="fill:#FF6E36;" width="20" height="150"/>
	<polygon style="fill:#FF6E36;" points="155,408 155,428 230,428 240,418 230,408 	"/>
	<rect x="230" y="408" style="fill:#FF5347;" width="75" height="20"/>
	<polygon style="fill:#FF6E36;" points="145,368 145,388 230,388 240,378 230,368 	"/>
	<rect x="230" y="368" style="fill:#FF5347;" width="85" height="20"/>
	<polygon style="fill:#FF984C;" points="145,218 145,238 230,238 240,228 230,218 	"/>
	<rect x="230" y="218" style="fill:#FF6E36;" width="85" height="20"/>
</g>
<g>
</g>
<g>
</g>
<g>
</g>
<g>
</g>
<g>
</g>
<g>
</g>
<g>
</g>
<g>
</g>
<g>
</g>
<g>
</g>
<g>
</g>
<g>
</g>
<g>
</g>
<g>
</g>
<g>
</g>
</svg>
