<?xml version="1.0" encoding="iso-8859-1"?>
<!-- Generator: Adobe Illustrator 19.0.0, SVG Export Plug-In . SVG Version: 6.00 Build 0)  -->
<svg version="1.1" id="Layer_1" xmlns="http://www.w3.org/2000/svg" xmlns:xlink="http://www.w3.org/1999/xlink" x="0px" y="0px"
	 viewBox="0 0 512 512" style="enable-background:new 0 0 512 512;" xml:space="preserve">
<g>
	<g>
		<path d="M503.38,171.762c-31.273,0-56.716-25.444-56.716-56.716c0-4.76-3.859-8.62-8.62-8.62H73.969c-4.76,0-8.62,3.859-8.62,8.62
			c0,31.274-25.448,56.716-56.729,56.716c-4.76,0-8.62,3.859-8.62,8.62v151.236c0,4.76,3.859,8.62,8.62,8.62
			c31.281,0,56.729,25.444,56.729,56.716c0,4.76,3.859,8.62,8.62,8.62h364.075c4.76,0,8.62-3.859,8.62-8.62
			c0-31.273,25.444-56.716,56.716-56.716c4.76,0,8.62-3.859,8.62-8.62V180.382C512,175.622,508.141,171.762,503.38,171.762z
			 M494.76,323.498c-33.907,3.953-60.885,30.93-64.837,64.837H82.089c-3.952-33.907-30.936-60.885-64.849-64.837V188.503
			c33.913-3.953,60.896-30.93,64.849-64.837h347.834c3.952,33.907,30.93,60.885,64.837,64.837V323.498z"/>
	</g>
</g>
<g>
	<g>
		<path d="M475.05,198.194c-25.581-8.743-46.075-29.236-54.818-54.818c-1.193-3.488-4.471-5.832-8.157-5.832H99.936
			c-3.686,0-6.965,2.343-8.157,5.832c-8.745,25.585-29.242,46.078-54.829,54.82c-3.488,1.192-5.833,4.471-5.833,8.157v99.296
			c0,3.687,2.345,6.965,5.833,8.157c25.586,8.741,46.083,29.234,54.829,54.819c1.192,3.488,4.471,5.832,8.157,5.832h312.139
			c3.686,0,6.965-2.345,8.157-5.832c8.743-25.583,29.236-46.075,54.818-54.819c3.488-1.192,5.832-4.47,5.832-8.157v-99.298
			C480.881,202.664,478.537,199.386,475.05,198.194z M463.641,299.685c-25.941,10.658-46.874,31.59-57.531,57.531H105.9
			c-10.66-25.945-31.596-46.878-57.542-57.534v-87.366c25.946-10.655,46.883-31.59,57.542-57.534h300.21
			c10.656,25.941,31.589,46.874,57.531,57.531V299.685z"/>
	</g>
</g>
<g>
	<g>
		<path d="M331.866,227.777H180.134c-4.76,0-8.62,3.859-8.62,8.62s3.859,8.62,8.62,8.62h151.731c4.76,0,8.62-3.859,8.62-8.62
			S336.626,227.777,331.866,227.777z"/>
	</g>
</g>
<g>
	<g>
		<path d="M331.866,266.984H180.134c-4.76,0-8.62,3.859-8.62,8.62c0,4.76,3.859,8.62,8.62,8.62h151.731c4.76,0,8.62-3.859,8.62-8.62
			C340.485,270.843,336.626,266.984,331.866,266.984z"/>
	</g>
</g>
<g>
	<g>
		<path d="M303.378,306.192h-94.756c-4.76,0-8.62,3.859-8.62,8.62s3.859,8.62,8.62,8.62h94.756c4.76,0,8.62-3.859,8.62-8.62
			S308.138,306.192,303.378,306.192z"/>
	</g>
</g>
<g>
	<g>
		<path d="M303.378,188.57h-94.756c-4.76,0-8.62,3.859-8.62,8.62c0,4.76,3.859,8.62,8.62,8.62h94.756c4.76,0,8.62-3.859,8.62-8.62
			C311.997,192.429,308.138,188.57,303.378,188.57z"/>
	</g>
</g>
<g>
	<g>
		<path d="M148.966,242.355c-1.013-3.12-3.71-5.395-6.957-5.866l-18.868-2.742l-8.438-17.097c-1.453-2.942-4.449-4.805-7.73-4.805
			c-3.281,0-6.278,1.863-7.73,4.805l-8.438,17.097l-18.868,2.742c-3.247,0.471-5.944,2.746-6.958,5.866
			c-1.014,3.12-0.168,6.545,2.181,8.836L80.812,264.5l-3.224,18.792c-0.554,3.234,0.775,6.503,3.43,8.43
			c2.654,1.929,6.173,2.184,9.077,0.656l16.877-8.873l16.877,8.873c1.262,0.663,2.638,0.99,4.01,0.99
			c1.787,0,3.566-0.555,5.067-1.646c2.655-1.929,3.984-5.197,3.43-8.43l-3.223-18.792l13.653-13.309
			C149.134,248.901,149.98,245.476,148.966,242.355z M117.854,255.318c-2.032,1.98-2.959,4.834-2.479,7.629l1.037,6.045
			l-5.428-2.854c-2.512-1.319-5.511-1.319-8.022,0l-5.428,2.854l1.037-6.044c0.479-2.796-0.447-5.65-2.479-7.63l-4.392-4.281
			l6.07-0.883c2.808-0.408,5.235-2.171,6.49-4.716l2.714-5.499l2.714,5.499c1.255,2.543,3.682,4.308,6.49,4.716l6.07,0.883
			L117.854,255.318z"/>
	</g>
</g>
<g>
	<g>
		<path d="M447.02,242.355c-1.014-3.12-3.711-5.395-6.958-5.866l-18.868-2.742l-8.437-17.097c-1.453-2.942-4.449-4.805-7.73-4.805
			c-3.281,0-6.278,1.863-7.73,4.805l-8.438,17.097l-18.868,2.742c-3.247,0.471-5.944,2.746-6.958,5.866s-0.168,6.545,2.181,8.836
			l13.653,13.309l-3.224,18.792c-0.554,3.234,0.775,6.503,3.43,8.43c2.654,1.929,6.174,2.184,9.077,0.656l16.877-8.873l16.877,8.873
			c1.262,0.663,2.638,0.99,4.01,0.99c1.787,0,3.566-0.555,5.067-1.646c2.655-1.929,3.984-5.197,3.43-8.43l-3.223-18.792
			l13.653-13.309C447.188,248.901,448.034,245.476,447.02,242.355z M415.909,255.318c-2.032,1.98-2.96,4.834-2.479,7.629
			l1.037,6.045l-5.428-2.854c-2.512-1.319-5.511-1.319-8.022,0l-5.428,2.854l1.037-6.044c0.479-2.796-0.447-5.65-2.479-7.63
			l-4.392-4.281l6.07-0.883c2.808-0.408,5.235-2.171,6.49-4.716l2.714-5.499l2.714,5.499c1.255,2.543,3.682,4.308,6.49,4.716
			l6.07,0.883L415.909,255.318z"/>
	</g>
</g>
<g>
</g>
<g>
</g>
<g>
</g>
<g>
</g>
<g>
</g>
<g>
</g>
<g>
</g>
<g>
</g>
<g>
</g>
<g>
</g>
<g>
</g>
<g>
</g>
<g>
</g>
<g>
</g>
<g>
</g>
</svg>
