<?xml version="1.0" encoding="iso-8859-1"?>
<!-- Generator: Adobe Illustrator 19.0.0, SVG Export Plug-In . SVG Version: 6.00 Build 0)  -->
<svg version="1.1" id="Layer_1" xmlns="http://www.w3.org/2000/svg" xmlns:xlink="http://www.w3.org/1999/xlink" x="0px" y="0px"
	 viewBox="0 0 512 512" style="enable-background:new 0 0 512 512;" xml:space="preserve">
<circle style="fill:#477F3C;" cx="256" cy="256" r="256"/>
<path style="fill:#2E5E24;" d="M311.546,505.939c97.216-21.509,173.647-98.276,194.672-195.672L359.243,164.826l-87.497,71.866
	l-12.585-12.585L104.238,298.63L311.546,505.939z"/>
<path id="SVGCleanerId_0" style="fill:#FFEDB5;" d="M400.808,292.202v-72.404c-26.658,0-48.269-21.611-48.269-48.269H159.461
	c0,26.658-21.611,48.269-48.269,48.269v72.404c26.658,0,48.269,21.611,48.269,48.269h193.077
	C352.539,313.813,374.15,292.202,400.808,292.202z"/>
<path id="SVGCleanerId_1" style="fill:#FFC61B;" d="M352.539,349.953H159.461c-5.236,0-9.481-4.246-9.481-9.481
	c0-21.387-17.401-38.788-38.788-38.788c-5.235,0-9.481-4.246-9.481-9.481v-72.404c0-5.236,4.246-9.481,9.481-9.481
	c21.387,0,38.788-17.401,38.788-38.788c0-5.236,4.246-9.481,9.481-9.481h193.077c5.236,0,9.481,4.246,9.481,9.481
	c0,21.387,17.401,38.788,38.788,38.788c5.236,0,9.481,4.246,9.481,9.481v72.404c0,5.236-4.246,9.481-9.481,9.481
	c-21.387,0-38.788,17.401-38.788,38.788C362.02,345.707,357.774,349.953,352.539,349.953z M168.165,330.99h175.669
	c4.025-24.264,23.228-43.467,47.492-47.492v-54.996c-24.264-4.025-43.467-23.228-47.492-47.492H168.165
	c-4.025,24.264-23.228,43.467-47.492,47.492v54.996C144.937,287.523,164.14,306.726,168.165,330.99z"/>
<g>
	<path id="SVGCleanerId_0_1_" style="fill:#FFEDB5;" d="M400.808,292.202v-72.404c-26.658,0-48.269-21.611-48.269-48.269H159.461
		c0,26.658-21.611,48.269-48.269,48.269v72.404c26.658,0,48.269,21.611,48.269,48.269h193.077
		C352.539,313.813,374.15,292.202,400.808,292.202z"/>
</g>
<path style="fill:#FEE187;" d="M352.539,171.529h-97.113v168.943h97.113c0-26.658,21.611-48.269,48.269-48.269v-72.404
	C374.15,219.798,352.539,198.187,352.539,171.529z"/>
<g>
	<path id="SVGCleanerId_1_1_" style="fill:#FFC61B;" d="M352.539,349.953H159.461c-5.236,0-9.481-4.246-9.481-9.481
		c0-21.387-17.401-38.788-38.788-38.788c-5.235,0-9.481-4.246-9.481-9.481v-72.404c0-5.236,4.246-9.481,9.481-9.481
		c21.387,0,38.788-17.401,38.788-38.788c0-5.236,4.246-9.481,9.481-9.481h193.077c5.236,0,9.481,4.246,9.481,9.481
		c0,21.387,17.401,38.788,38.788,38.788c5.236,0,9.481,4.246,9.481,9.481v72.404c0,5.236-4.246,9.481-9.481,9.481
		c-21.387,0-38.788,17.401-38.788,38.788C362.02,345.707,357.774,349.953,352.539,349.953z M168.165,330.99h175.669
		c4.025-24.264,23.228-43.467,47.492-47.492v-54.996c-24.264-4.025-43.467-23.228-47.492-47.492H168.165
		c-4.025,24.264-23.228,43.467-47.492,47.492v54.996C144.937,287.523,164.14,306.726,168.165,330.99z"/>
</g>
<path style="fill:#EAA22F;" d="M400.808,210.316c-21.387,0-38.788-17.401-38.788-38.788c0-5.236-4.246-9.481-9.481-9.481h-97.113
	v18.963h88.409c4.025,24.264,23.228,43.467,47.492,47.492v54.996c-24.264,4.025-43.467,23.228-47.492,47.492h-88.409v18.963h97.113
	c5.236,0,9.481-4.246,9.481-9.481c0-21.387,17.401-38.788,38.788-38.788c5.236,0,9.481-4.246,9.481-9.481v-72.404
	C410.29,214.562,406.044,210.316,400.808,210.316z"/>
<g>
	<path style="fill:#386895;" d="M306.302,227.375H205.7c-5.236,0-9.481-4.246-9.481-9.481s4.246-9.481,9.481-9.481h100.602
		c5.236,0,9.481,4.246,9.481,9.481S311.537,227.375,306.302,227.375z"/>
	<path style="fill:#386895;" d="M306.302,265.481H205.7c-5.236,0-9.481-4.246-9.481-9.481c0-5.236,4.246-9.481,9.481-9.481h100.602
		c5.236,0,9.481,4.246,9.481,9.481C315.783,261.236,311.537,265.481,306.302,265.481z"/>
	<path style="fill:#386895;" d="M306.302,302.064H205.7c-5.236,0-9.481-4.246-9.481-9.481s4.246-9.481,9.481-9.481h100.602
		c5.236,0,9.481,4.246,9.481,9.481S311.537,302.064,306.302,302.064z"/>
</g>
<g>
	<path style="fill:#273B7A;" d="M306.302,208.412h-50.876v18.963h50.876c5.236,0,9.481-4.246,9.481-9.481
		S311.537,208.412,306.302,208.412z"/>
	<path style="fill:#273B7A;" d="M306.302,246.519h-50.876v18.963h50.876c5.236,0,9.481-4.246,9.481-9.481
		C315.783,250.764,311.537,246.519,306.302,246.519z"/>
	<path style="fill:#273B7A;" d="M306.302,283.102h-50.876v18.963h50.876c5.236,0,9.481-4.246,9.481-9.481
		S311.537,283.102,306.302,283.102z"/>
</g>
<path style="fill:#E09112;" d="M163.924,234.967l4.325,8.763c0.6,1.215,1.758,2.057,3.1,2.251l9.671,1.405
	c3.377,0.491,4.725,4.641,2.282,7.021l-6.997,6.821c-0.971,0.946-1.414,2.308-1.184,3.644l1.652,9.631
	c0.578,3.363-2.953,5.928-5.973,4.341l-8.649-4.548c-1.2-0.631-2.632-0.631-3.832,0l-8.649,4.548
	c-3.02,1.588-6.551-0.977-5.973-4.341l1.651-9.631c0.229-1.336-0.214-2.698-1.184-3.644l-6.997-6.821
	c-2.443-2.382-1.095-6.532,2.282-7.021l9.671-1.405c1.341-0.195,2.5-1.038,3.1-2.251l4.325-8.763
	C158.051,231.907,162.414,231.907,163.924,234.967z"/>
<path style="fill:#FF5419;" d="M361.131,234.967l4.325,8.763c0.6,1.215,1.758,2.057,3.1,2.251l9.671,1.405
	c3.377,0.491,4.725,4.641,2.282,7.021l-6.997,6.821c-0.971,0.946-1.414,2.308-1.184,3.644l1.651,9.631
	c0.578,3.363-2.953,5.928-5.973,4.341l-8.649-4.548c-1.2-0.631-2.632-0.631-3.832,0l-8.649,4.548
	c-3.02,1.588-6.551-0.977-5.973-4.341l1.651-9.631c0.229-1.336-0.214-2.698-1.184-3.644l-6.997-6.821
	c-2.443-2.382-1.095-6.532,2.282-7.021l9.671-1.405c1.341-0.195,2.5-1.038,3.1-2.251l4.325-8.763
	C355.257,231.907,359.621,231.907,361.131,234.967z"/>
<g>
</g>
<g>
</g>
<g>
</g>
<g>
</g>
<g>
</g>
<g>
</g>
<g>
</g>
<g>
</g>
<g>
</g>
<g>
</g>
<g>
</g>
<g>
</g>
<g>
</g>
<g>
</g>
<g>
</g>
</svg>
