<?xml version="1.0" encoding="iso-8859-1"?>
<!-- Generator: Adobe Illustrator 19.0.0, SVG Export Plug-In . SVG Version: 6.00 Build 0)  -->
<svg version="1.1" id="Capa_1" xmlns="http://www.w3.org/2000/svg" xmlns:xlink="http://www.w3.org/1999/xlink" x="0px" y="0px"
	 viewBox="0 0 490 490" style="enable-background:new 0 0 490 490;" xml:space="preserve">
<g>
	<path d="M245,355.059c47.469,0,86.072-38.389,86.072-85.581c0-47.194-38.619-85.582-86.072-85.582s-86.056,38.389-86.056,85.582
		C158.944,316.67,197.547,355.059,245,355.059z M245.004,232.239c20.614,0,37.38,16.704,37.38,37.238
		c0,20.533-16.775,37.237-37.38,37.237c-20.605,0-37.372-16.704-37.372-37.237C207.632,248.943,224.399,232.239,245.004,232.239z"/>
	<path d="M459.375,102.065h-106.13c0-26.98-22.019-48.954-49.108-48.954H185.863c-27.087,0-49.107,21.958-49.107,48.954H30.625
		C13.782,102.065,0,115.847,0,132.69v54.207h163.023C184.112,166.13,213.068,153.27,245,153.27s60.892,12.86,81.985,33.627H490
		V132.69C490,115.847,476.219,102.065,459.375,102.065z"/>
	<path d="M361.697,269.477c0,64.083-52.354,116.206-116.697,116.206c-64.343,0-116.681-52.124-116.681-116.206
		c0-18.688,4.557-36.298,12.459-51.955H0v188.742c0,16.843,13.782,30.625,30.625,30.625h428.75
		c16.844,0,30.625-13.782,30.625-30.625V217.522H349.235C357.139,233.179,361.697,250.789,361.697,269.477z"/>
</g>
<g>
</g>
<g>
</g>
<g>
</g>
<g>
</g>
<g>
</g>
<g>
</g>
<g>
</g>
<g>
</g>
<g>
</g>
<g>
</g>
<g>
</g>
<g>
</g>
<g>
</g>
<g>
</g>
<g>
</g>
</svg>
