<?xml version="1.0" encoding="iso-8859-1"?>
<!-- Generator: Adobe Illustrator 18.0.0, SVG Export Plug-In . SVG Version: 6.00 Build 0)  -->
<!DOCTYPE svg PUBLIC "-//W3C//DTD SVG 1.1//EN" "http://www.w3.org/Graphics/SVG/1.1/DTD/svg11.dtd">
<svg version="1.1" id="Capa_1" xmlns="http://www.w3.org/2000/svg" xmlns:xlink="http://www.w3.org/1999/xlink" x="0px" y="0px"
	 viewBox="0 0 253.532 253.532" style="enable-background:new 0 0 253.532 253.532;" xml:space="preserve">
<g>
	<path d="M172.612,105.686c-2.761,0-5,2.239-5,5v11.032H154.69v-11.032c0-2.761-2.239-5-5-5s-5,2.239-5,5v11.032h-12.924v-11.032
		c0-2.761-2.239-5-5-5s-5,2.239-5,5v11.032h-12.924v-11.032c0-2.761-2.239-5-5-5c-2.761,0-5,2.239-5,5v11.032H85.921v-11.032
		c0-2.761-2.239-5-5-5s-5,2.239-5,5v32.161c0,2.761,2.239,5,5,5s5-2.239,5-5v-11.129h12.922v11.129c0,2.761,2.239,5,5,5
		c2.761,0,5-2.239,5-5v-11.129h12.924v11.129c0,2.761,2.239,5,5,5s5-2.239,5-5v-11.129h12.924v11.129c0,2.761,2.239,5,5,5
		s5-2.239,5-5v-11.129h12.922v11.129c0,2.761,2.239,5,5,5s5-2.239,5-5v-32.161C177.612,107.924,175.374,105.686,172.612,105.686z"/>
	<path d="M215.65,72.706c-15.39-11.744-47.402-31.446-88.883-31.446c-41.482,0-73.494,19.702-88.884,31.445
		C14.87,90.266,0,111.486,0,126.766c0,15.279,14.87,36.499,37.882,54.061c15.39,11.744,47.402,31.446,88.884,31.446
		c41.481,0,73.493-19.702,88.883-31.445c23.013-17.561,37.882-38.781,37.882-54.06S238.663,90.267,215.65,72.706z M15,126.766
		c0-7.866,9.393-23.346,26.905-38.065v76.131C24.392,150.111,15,134.631,15,126.766z M56.905,175.823V77.709
		C72.575,67.71,97.011,56.26,126.767,56.26c29.755,0,54.191,11.45,69.86,21.449v98.115c-15.669,9.999-40.105,21.449-69.86,21.449
		C97.011,197.272,72.575,185.822,56.905,175.823z M211.627,164.832V88.701c17.513,14.72,26.905,30.2,26.905,38.066
		S229.14,150.113,211.627,164.832z"/>
</g>
<g>
</g>
<g>
</g>
<g>
</g>
<g>
</g>
<g>
</g>
<g>
</g>
<g>
</g>
<g>
</g>
<g>
</g>
<g>
</g>
<g>
</g>
<g>
</g>
<g>
</g>
<g>
</g>
<g>
</g>
</svg>
