<?xml version="1.0" encoding="UTF-8" standalone="no"?>
<!-- Created with Inkscape (http://www.inkscape.org/) -->

<svg
   xmlns:dc="http://purl.org/dc/elements/1.1/"
   xmlns:cc="http://creativecommons.org/ns#"
   xmlns:rdf="http://www.w3.org/1999/02/22-rdf-syntax-ns#"
   xmlns:svg="http://www.w3.org/2000/svg"
   xmlns="http://www.w3.org/2000/svg"
   xmlns:sodipodi="http://sodipodi.sourceforge.net/DTD/sodipodi-0.dtd"
   xmlns:inkscape="http://www.inkscape.org/namespaces/inkscape"
   id="svg2"
   version="1.1"
   inkscape:version="0.48.4 r9939"
   width="103.00003"
   height="54"
   xml:space="preserve"
   sodipodi:docname="lgo_color.svg"><metadata
     id="metadata8"><rdf:RDF><cc:Work
         rdf:about=""><dc:format>image/svg+xml</dc:format><dc:type
           rdf:resource="http://purl.org/dc/dcmitype/StillImage" /><dc:title></dc:title></cc:Work></rdf:RDF></metadata><defs
     id="defs6" /><sodipodi:namedview
     pagecolor="#ffffff"
     bordercolor="#666666"
     borderopacity="1"
     objecttolerance="10"
     gridtolerance="10"
     guidetolerance="10"
     inkscape:pageopacity="0"
     inkscape:pageshadow="2"
     inkscape:window-width="1600"
     inkscape:window-height="823"
     id="namedview4"
     showgrid="true"
     inkscape:snap-bbox="false"
     inkscape:bbox-paths="true"
     inkscape:bbox-nodes="true"
     inkscape:object-paths="true"
     inkscape:snap-intersection-paths="true"
     inkscape:snap-smooth-nodes="false"
     inkscape:object-nodes="true"
     fit-margin-top="0"
     fit-margin-left="0"
     fit-margin-right="0"
     fit-margin-bottom="0"
     inkscape:zoom="5.0915035"
     inkscape:cx="40.348562"
     inkscape:cy="29.339444"
     inkscape:window-x="0"
     inkscape:window-y="25"
     inkscape:window-maximized="1"
     inkscape:current-layer="g10"><inkscape:grid
       type="xygrid"
       id="grid3113"
       empspacing="5"
       visible="true"
       enabled="true"
       snapvisiblegridlinesonly="true"
       originx="-405.99998px"
       originy="-258px" /></sodipodi:namedview><g
     id="g10"
     inkscape:groupmode="layer"
     inkscape:label="LES-manual_de_marca"
     transform="matrix(1.25,0,0,-1.25,-405.99998,312.00003)"><g
       id="g3105"
       transform="matrix(0.31558205,0,0,0.31558205,242.64053,161.91755)"><path
         d="m 372.5982,178.9777 0,55.771 9.066,0 0,-47.659 20.27,0 0,-8.112 -29.336,0 z"
         style="fill:#4f4c4d;fill-opacity:1;fill-rule:nonzero;stroke:none"
         id="path50"
         inkscape:connector-curvature="0" /><path
         d="m 409.2867,178.9777 0,55.771 31.128,0 0,-7.696 -22.059,0 0,-13.978 22.059,0 0,-7.964 -22.059,0 0,-18.021 22.059,0 0,-8.112 -31.128,0 z"
         style="fill:#4f4c4d;fill-opacity:1;fill-rule:nonzero;stroke:none"
         id="path54"
         inkscape:connector-curvature="0" /><path
         d="m 447.6158,190.1349 7.239,3.354 c 0.686,-2.489 1.942,-4.384 3.772,-5.693 1.829,-1.31 4.165,-1.962 7.01,-1.962 2.692,0 4.832,0.749 6.418,2.247 1.587,1.498 2.382,3.504 2.382,6.019 0,3.275 -2.717,6.194 -8.153,8.764 -0.763,0.381 -1.346,0.659 -1.753,0.836 -6.146,2.998 -10.241,5.708 -12.286,8.135 -2.044,2.425 -3.067,5.389 -3.067,8.896 0,4.546 1.542,8.229 4.628,11.051 3.085,2.815 7.132,4.226 12.137,4.226 4.114,0 7.554,-0.792 10.321,-2.384 2.771,-1.585 4.689,-3.863 5.754,-6.836 l -7.087,-3.658 c -1.115,1.752 -2.341,3.035 -3.674,3.85 -1.335,0.812 -2.864,1.217 -4.593,1.217 -2.437,0 -4.374,-0.632 -5.809,-1.904 -1.434,-1.27 -2.152,-2.97 -2.152,-5.109 0,-3.349 3.149,-6.473 9.446,-9.368 0.484,-0.232 0.865,-0.407 1.145,-0.536 5.511,-2.539 9.296,-5.019 11.353,-7.447 2.059,-2.426 3.087,-5.456 3.087,-9.087 0,-5.28 -1.664,-9.478 -4.991,-12.591 -3.329,-3.113 -7.822,-4.667 -13.486,-4.667 -4.75,0 -8.644,1.093 -11.68,3.281 -3.034,2.183 -5.022,5.304 -5.961,9.366"
         style="fill:#4f4c4d;fill-opacity:1;fill-rule:nonzero;stroke:none"
         id="path66"
         inkscape:connector-curvature="0" /><path
         d="m 304.0543,192.8566 46.805,0 c 3.99,5.065 6.371,11.46 6.371,18.409 0,16.445 -13.33,29.775 -29.774,29.775 -16.443,0 -29.773,-13.33 -29.773,-29.775 0,-6.949 2.381,-13.343 6.371,-18.409"
         style="fill:#fccc1d;fill-opacity:1;fill-rule:nonzero;stroke:none"
         id="path70"
         inkscape:connector-curvature="0" /><path
         d="m 314.0093,184.8556 c 6.545,-4.119 13.447,-7.368 13.447,-7.368 0,0 6.904,3.249 13.448,7.368 l -26.895,0 z"
         style="fill:#4f4c4d;fill-opacity:1;fill-rule:nonzero;stroke:none"
         id="path74"
         inkscape:connector-curvature="0" /><path
         d="m 314.0093,184.8556 26.895,0 c 4.009,2.522 7.882,5.372 9.955,8.001 l -46.805,0 c 2.072,-2.629 5.945,-5.479 9.955,-8.001"
         style="fill:#f4f4f4;fill-opacity:1;fill-rule:nonzero;stroke:none"
         id="path78"
         inkscape:connector-curvature="0" /></g></g></svg>