<?xml version="1.0" encoding="UTF-8" standalone="no"?>
<!-- Created with Inkscape (http://www.inkscape.org/) -->

<svg
   xmlns:dc="http://purl.org/dc/elements/1.1/"
   xmlns:cc="http://creativecommons.org/ns#"
   xmlns:rdf="http://www.w3.org/1999/02/22-rdf-syntax-ns#"
   xmlns:svg="http://www.w3.org/2000/svg"
   xmlns="http://www.w3.org/2000/svg"
   xmlns:xlink="http://www.w3.org/1999/xlink"
   xmlns:sodipodi="http://sodipodi.sourceforge.net/DTD/sodipodi-0.dtd"
   xmlns:inkscape="http://www.inkscape.org/namespaces/inkscape"
   width="70"
   height="70"
   id="svg2"
   version="1.1"
   inkscape:version="0.48.4 r9939"
   sodipodi:docname="marker.svg"
   inkscape:export-filename="/home/chrono/programacion/liber-dovat.github.io/team_vegas/images/landmark.png"
   inkscape:export-xdpi="64.285713"
   inkscape:export-ydpi="64.285713">
  <defs
     id="defs4" />
  <sodipodi:namedview
     id="base"
     pagecolor="#ffffff"
     bordercolor="#666666"
     borderopacity="1.0"
     inkscape:pageopacity="0.0"
     inkscape:pageshadow="2"
     inkscape:zoom="1.6591756"
     inkscape:cx="11.138298"
     inkscape:cy="22.589917"
     inkscape:document-units="px"
     inkscape:current-layer="layer1"
     showgrid="false"
     fit-margin-top="0"
     fit-margin-left="0"
     fit-margin-right="0"
     fit-margin-bottom="0"
     inkscape:window-width="1600"
     inkscape:window-height="823"
     inkscape:window-x="0"
     inkscape:window-y="25"
     inkscape:window-maximized="1"
     inkscape:snap-bbox="true"
     inkscape:bbox-paths="true"
     inkscape:snap-global="true" />
  <metadata
     id="metadata7">
    <rdf:RDF>
      <cc:Work
         rdf:about="">
        <dc:format>image/svg+xml</dc:format>
        <dc:type
           rdf:resource="http://purl.org/dc/dcmitype/StillImage" />
        <dc:title></dc:title>
      </cc:Work>
    </rdf:RDF>
  </metadata>
  <g
     inkscape:label="back"
     inkscape:groupmode="layer"
     id="layer1"
     transform="translate(-254.41383,-418.24347)"
     style="display:inline">
    <path
       style="opacity:1;fill:#267fca;fill-opacity:1;fill-rule:nonzero;stroke:none"
       d="m 289.41383,472.24347 30.29032,-1.44876 -30.29032,52.44876 z"
       id="rect12491"
       inkscape:connector-curvature="0"
       sodipodi:nodetypes="cccc"
       inkscape:export-filename="/home/chrono/programacion/liber-dovat.github.io/team_vegas/images/restaurant.png"
       inkscape:export-xdpi="64"
       inkscape:export-ydpi="64" />
    <path
       sodipodi:nodetypes="cccc"
       inkscape:connector-curvature="0"
       id="path12494"
       d="m 291.41383,472.24347 -32.29032,-1.44876 30.29032,52.44876 z"
       style="fill:#267fca;fill-opacity:1;fill-rule:nonzero;stroke:none"
       inkscape:export-filename="/home/chrono/programacion/liber-dovat.github.io/team_vegas/images/restaurant.png"
       inkscape:export-xdpi="64"
       inkscape:export-ydpi="64" />
    <path
       sodipodi:type="arc"
       style="fill:#267fca;fill-opacity:1;fill-rule:nonzero;stroke:none"
       id="path2985"
       sodipodi:cx="245.25005"
       sodipodi:cy="431.13406"
       sodipodi:rx="34.572693"
       sodipodi:ry="34.572693"
       d="m 279.82274,431.13406 a 34.572693,34.572693 0 1 1 -69.14539,0 34.572693,34.572693 0 1 1 69.14539,0 z"
       transform="matrix(1.0123597,0,0,1.0123597,41.132567,16.780719)"
       inkscape:export-filename="/home/chrono/programacion/liber-dovat.github.io/team_vegas/images/restaurant.png"
       inkscape:export-xdpi="64"
       inkscape:export-ydpi="64" />
    <path
       transform="matrix(0.89666142,0,0,0.89666142,69.507576,66.662188)"
       d="m 279.82274,431.13406 a 34.572693,34.572693 0 1 1 -69.14539,0 34.572693,34.572693 0 1 1 69.14539,0 z"
       sodipodi:ry="34.572693"
       sodipodi:rx="34.572693"
       sodipodi:cy="431.13406"
       sodipodi:cx="245.25005"
       id="path2987"
       style="fill:#ffffff;fill-opacity:1;fill-rule:nonzero;stroke:none"
       sodipodi:type="arc"
       inkscape:export-filename="/home/chrono/programacion/liber-dovat.github.io/team_vegas/images/restaurant.png"
       inkscape:export-xdpi="64"
       inkscape:export-ydpi="64" />
    <path
       transform="matrix(0.72311405,0,0,0.72311405,112.07008,141.48437)"
       d="m 279.82274,431.13406 a 34.572693,34.572693 0 1 1 -69.14539,0 34.572693,34.572693 0 1 1 69.14539,0 z"
       sodipodi:ry="34.572693"
       sodipodi:rx="34.572693"
       sodipodi:cy="431.13406"
       sodipodi:cx="245.25005"
       id="path6467"
       style="opacity:0.25;fill:#ff0000;fill-opacity:1;fill-rule:nonzero;stroke:none;display:inline"
       sodipodi:type="arc"
       inkscape:export-filename="/home/chrono/programacion/liber-dovat.github.io/team_vegas/images/restaurant.png"
       inkscape:export-xdpi="64"
       inkscape:export-ydpi="64" />
  </g>
  <g
     inkscape:groupmode="layer"
     id="layer2"
     inkscape:label="food1"
     style="display:none"
     sodipodi:insensitive="true">
    <path
       sodipodi:type="arc"
       style="fill:#f57f17;fill-opacity:1;fill-rule:nonzero;stroke:none"
       id="path2989"
       sodipodi:cx="245.25005"
       sodipodi:cy="431.13406"
       sodipodi:rx="34.572693"
       sodipodi:ry="34.572693"
       d="m 279.82274,431.13406 a 34.572693,34.572693 0 1 1 -69.14539,0 34.572693,34.572693 0 1 1 69.14539,0 z"
       transform="matrix(0.78096318,0,0,0.78096318,-156.53126,-301.69983)" />
    <path
       transform="matrix(0.72311405,0,0,0.72311405,-142.34375,-276.7591)"
       d="m 279.82274,431.13406 a 34.572693,34.572693 0 1 1 -69.14539,0 34.572693,34.572693 0 1 1 69.14539,0 z"
       sodipodi:ry="34.572693"
       sodipodi:rx="34.572693"
       sodipodi:cy="431.13406"
       sodipodi:cx="245.25005"
       id="path3839"
       style="opacity:0.25;fill:#f57f17;fill-opacity:1;fill-rule:nonzero;stroke:none"
       sodipodi:type="arc" />
    <g
       style="fill:#ffffff;overflow:inherit"
       id="g3836"
       transform="matrix(0.90883064,0,0,0.90883064,12.27923,12.73615)">
      <path
         id="path3828"
         d="M 22,1.932 V 13 H 20 V 2 C 20,1.448 19.552,1 19,1 18.448,1 18,1.448 18,2 V 13 H 16 V 1.964 C 16,0.677 14,0.721 14,1.931 V 13 H 12 V 2.01 C 12,0.647 10,0.697 10,1.956 v 14.472 c 0,2.087 2,3.463 4,3.463 V 46 c 0,4 6,4 6,0 V 19.892 c 2,0 4,-1.662 4,-3.227 V 1.964 C 24,0.689 22,0.738 22,1.932 z M 31,5 v 25 h 2 v 16 c 0,4 7,4 7,0 V 5 C 40,0 31,0 31,5 z"
         inkscape:connector-curvature="0"
         style="fill:#ffffff" />
    </g>
  </g>
  <g
     inkscape:groupmode="layer"
     id="layer3"
     inkscape:label="food2"
     style="display:inline"
     sodipodi:insensitive="true">
    <path
       transform="matrix(0.78096318,0,0,0.78096318,-156.53126,-301.69983)"
       d="m 279.82274,431.13406 a 34.572693,34.572693 0 1 1 -69.14539,0 34.572693,34.572693 0 1 1 69.14539,0 z"
       sodipodi:ry="34.572693"
       sodipodi:rx="34.572693"
       sodipodi:cy="431.13406"
       sodipodi:cx="245.25005"
       id="path2997"
       style="fill:#f57f17;fill-opacity:1;fill-rule:nonzero;stroke:none"
       sodipodi:type="arc" />
    <g
       id="g12483"
       transform="matrix(0.11245897,0,0,0.11245897,100.8873,31.412171)">
      <path
         inkscape:connector-curvature="0"
         id="path12453"
         d="m -427.43373,184.07423 c -6.24656,2.95317 -11.66549,3.82056 -17.77157,2.84465 -10.21265,-1.63224 -7.97363,0.36902 -78.88457,-70.50792 -61.51581,-61.486263 -64.97461,-64.812147 -68.9581,-66.307345 -6.73527,-2.528069 -11.80462,-1.244727 -20.67928,5.235093 -3.9691,2.898042 -10.03132,3.354974 -14.26168,1.074972 -2.36148,-1.27275 -15.9504,-14.575309 -45.1481,-44.196684 -44.79468,-45.444684 -47.52054,-48.576184 -58.85043,-67.607928 -13.60266,-22.849519 -18.18313,-44.018518 -13.07668,-60.434908 5.83415,-18.75579 21.40642,-30.45541 37.18069,-27.93427 10.84665,1.73358 0.62529,-7.94545 153.9205,145.7537352 l 139.44172,139.8092148 1.72899,4.70683 c 5.33906,14.53459 -1.15151,31.18692 -14.64149,37.56456 z"
         style="fill:#ffffff" />
      <path
         style="fill:#ffffff;stroke:#f57f17;stroke-width:26.67639542"
         d="m -750.33629,179.55408 c -2.95317,-6.24656 -3.82056,-11.66549 -2.84465,-17.77157 1.61824,-10.12497 0.41558,-8.76117 62.28486,-70.630447 63.38429,-63.384289 58.76629,-59.475452 69.05878,-58.453938 9.68272,0.960994 12.73928,-0.716709 26.65085,-14.628278 18.12079,-18.12079262 20.74518,-24.6253406 17.27579,-42.81818 -2.32535,-12.193717 -1.99139,-22.897821 1.01338,-32.480285 4.71695,-15.04277 3.3214,-13.322139 45.08716,-55.589752 34.93297,-35.35272 37.86588,-38.13902 41.28671,-39.22294 5.55225,-1.75927 10.00356,-0.70357 14.03599,3.32886 4.03951,4.03952 5.09434,8.50914 3.3074,14.01453 -1.07578,3.31436 -4.01983,6.49271 -31.09755,33.57242 -32.44067,32.443499 -32.85946,32.967083 -30.7818,38.522658 1.27624,3.412632 2.99084,5.127239 6.40347,6.403475 5.55557,2.077649 6.07939,1.659091 38.52266,-30.7818 32.95291,-32.950083 32.94569,-32.944803 40.69425,-31.753903 4.72092,0.72558 10.13086,6.13553 10.85645,10.85645 1.1909,7.74855 1.19638,7.74153 -31.7539,40.69425 -32.44067,32.443494 -32.85946,32.967079 -30.7818,38.522654 1.27623,3.412632 2.99084,5.127238 6.40347,6.403474 5.55557,2.077649 6.07939,1.659092 38.52265,-30.7818 27.07943,-27.078011 30.25807,-30.021767 33.57243,-31.097552 5.50538,-1.786937 9.97501,-0.73211 14.01452,3.3074 4.03244,4.032432 5.08814,8.483747 3.32887,14.035992 -1.08392,3.420827 -3.87022,6.353736 -39.22294,41.286706 -42.26761,41.765763 -40.54698,40.370218 -55.58975,45.087164 -9.58247,3.004773 -20.28657,3.338732 -32.48029,1.013383 -18.26143,-3.482473 -24.66748,-0.87491 -43.07654,17.534148 -14.21452,14.214515 -14.39839,14.558367 -14.71017,27.507812 -0.13584,5.641644 -0.85179,9.339035 -2.17949,11.255542 -1.08746,1.569727 -27.52646,28.216507 -58.75332,59.215047 -56.00792,55.59842 -56.83978,56.38438 -61.48293,58.08997 -14.53459,5.33906 -31.18692,-1.15151 -37.56456,-14.64149 z"
         id="path12487"
         inkscape:connector-curvature="0" />
      <path
         inkscape:connector-curvature="0"
         id="path12479"
         d="m -750.33629,179.55408 c -2.95317,-6.24656 -3.82056,-11.66549 -2.84465,-17.77157 1.61824,-10.12497 0.41558,-8.76117 62.28486,-70.630447 63.38429,-63.384289 58.76629,-59.475452 69.05878,-58.453938 9.68272,0.960994 12.73928,-0.716709 26.65085,-14.628278 18.12079,-18.12079262 20.74518,-24.6253406 17.27579,-42.81818 -2.32535,-12.193717 -1.99139,-22.897821 1.01338,-32.480285 4.71695,-15.04277 3.3214,-13.322139 45.08716,-55.589752 34.93297,-35.35272 37.86588,-38.13902 41.28671,-39.22294 5.55225,-1.75927 10.00356,-0.70357 14.03599,3.32886 4.03951,4.03952 5.09434,8.50914 3.3074,14.01453 -1.07578,3.31436 -4.01983,6.49271 -31.09755,33.57242 -32.44067,32.443499 -32.85946,32.967083 -30.7818,38.522658 1.27624,3.412632 2.99084,5.127239 6.40347,6.403475 5.55557,2.077649 6.07939,1.659091 38.52266,-30.7818 32.95291,-32.950083 32.94569,-32.944803 40.69425,-31.753903 4.72092,0.72558 10.13086,6.13553 10.85645,10.85645 1.1909,7.74855 1.19638,7.74153 -31.7539,40.69425 -32.44067,32.443494 -32.85946,32.967079 -30.7818,38.522654 1.27623,3.412632 2.99084,5.127238 6.40347,6.403474 5.55557,2.077649 6.07939,1.659092 38.52265,-30.7818 27.07943,-27.078011 30.25807,-30.021767 33.57243,-31.097552 5.50538,-1.786937 9.97501,-0.73211 14.01452,3.3074 4.03244,4.032432 5.08814,8.483747 3.32887,14.035992 -1.08392,3.420827 -3.87022,6.353736 -39.22294,41.286706 -42.26761,41.765763 -40.54698,40.370218 -55.58975,45.087164 -9.58247,3.004773 -20.28657,3.338732 -32.48029,1.013383 -18.26143,-3.482473 -24.66748,-0.87491 -43.07654,17.534148 -14.21452,14.214515 -14.39839,14.558367 -14.71017,27.507812 -0.13584,5.641644 -0.85179,9.339035 -2.17949,11.255542 -1.08746,1.569727 -27.52646,28.216507 -58.75332,59.215047 -56.00792,55.59842 -56.83978,56.38438 -61.48293,58.08997 -14.53459,5.33906 -31.18692,-1.15151 -37.56456,-14.64149 z"
         style="fill:#ffffff;stroke:none" />
    </g>
  </g>
  <g
     inkscape:groupmode="layer"
     id="layer4"
     inkscape:label="park"
     style="display:none"
     sodipodi:insensitive="true">
    <path
       sodipodi:type="arc"
       style="fill:#7cb342;fill-opacity:1;fill-rule:nonzero;stroke:none"
       id="path5584"
       sodipodi:cx="245.25005"
       sodipodi:cy="431.13406"
       sodipodi:rx="34.572693"
       sodipodi:ry="34.572693"
       d="m 279.82274,431.13406 a 34.572693,34.572693 0 1 1 -69.14539,0 34.572693,34.572693 0 1 1 69.14539,0 z"
       transform="matrix(0.78096318,0,0,0.78096318,-156.53126,-301.69983)" />
    <path
       style="fill:#ffffff"
       inkscape:connector-curvature="0"
       d="m 37.032268,56.966964 h -3.991556 v -7.387816 c -6.590675,0.102388 -13.190125,1.92484 -19.289351,-1.50506 5.369367,-3.522048 11.889834,-13.020458 11.889834,-13.020458 0,0 -5.446886,-0.652339 -6.978275,-1.807828 C 24.180014,31.103028 29.176406,22.88443 29.176406,22.88443 L 24.725581,22.79813 34.972865,9.9999949 c 0,0 6.010005,9.1576141 10.247284,12.7527931 -1.543089,0.564581 -4.404021,0.152116 -4.404021,0.152116 0,0 4.829651,8.063557 10.493009,10.332118 -1.992122,1.608908 -7.106989,1.661563 -7.106989,1.661563 0,0 6.643331,9.616886 12.0361,13.181349 -6.094839,3.437214 -12.682588,1.611834 -19.203055,1.49921 v 7.389278 h -0.003 z"
       id="path5686" />
  </g>
  <g
     inkscape:groupmode="layer"
     id="layer5"
     inkscape:label="sports"
     style="display:none"
     sodipodi:insensitive="true">
    <path
       sodipodi:type="arc"
       style="fill:#7cb342;fill-opacity:1;fill-rule:nonzero;stroke:none;display:inline"
       id="path7782"
       sodipodi:cx="245.25005"
       sodipodi:cy="431.13406"
       sodipodi:rx="34.572693"
       sodipodi:ry="34.572693"
       d="m 279.82274,431.13406 a 34.572693,34.572693 0 1 1 -69.14539,0 34.572693,34.572693 0 1 1 69.14539,0 z"
       transform="matrix(0.78096318,0,0,0.78096318,-156.53126,-301.69983)" />
    <g
       id="g7954"
       transform="matrix(0.13945174,0.13945174,-0.13945174,0.13945174,35.000032,-0.35553925)"
       style="fill:#ffffff">
      <g
         id="g7912"
         style="fill:#ffffff">
        <path
           id="path7914"
           d="m 172.612,105.686 c -2.761,0 -5,2.239 -5,5 v 11.032 H 154.69 v -11.032 c 0,-2.761 -2.239,-5 -5,-5 -2.761,0 -5,2.239 -5,5 v 11.032 h -12.924 v -11.032 c 0,-2.761 -2.239,-5 -5,-5 -2.761,0 -5,2.239 -5,5 v 11.032 h -12.924 v -11.032 c 0,-2.761 -2.239,-5 -5,-5 -2.761,0 -5,2.239 -5,5 v 11.032 H 85.921 v -11.032 c 0,-2.761 -2.239,-5 -5,-5 -2.761,0 -5,2.239 -5,5 v 32.161 c 0,2.761 2.239,5 5,5 2.761,0 5,-2.239 5,-5 v -11.129 h 12.922 v 11.129 c 0,2.761 2.239,5 5,5 2.761,0 5,-2.239 5,-5 v -11.129 h 12.924 v 11.129 c 0,2.761 2.239,5 5,5 2.761,0 5,-2.239 5,-5 v -11.129 h 12.924 v 11.129 c 0,2.761 2.239,5 5,5 2.761,0 5,-2.239 5,-5 v -11.129 h 12.922 v 11.129 c 0,2.761 2.239,5 5,5 2.761,0 5,-2.239 5,-5 v -32.161 c -0.001,-2.762 -2.239,-5 -5.001,-5 z"
           inkscape:connector-curvature="0"
           style="fill:#ffffff" />
        <path
           id="path7916"
           d="M 215.65,72.706 C 200.26,60.962 168.248,41.26 126.767,41.26 85.285,41.26 53.273,60.962 37.883,72.705 14.87,90.266 0,111.486 0,126.766 c 0,15.279 14.87,36.499 37.882,54.061 15.39,11.744 47.402,31.446 88.884,31.446 41.481,0 73.493,-19.702 88.883,-31.445 23.013,-17.561 37.882,-38.781 37.882,-54.06 0,-15.279 -14.868,-36.501 -37.881,-54.062 z M 15,126.766 C 15,118.9 24.393,103.42 41.905,88.701 v 76.131 C 24.392,150.111 15,134.631 15,126.766 z m 41.905,49.057 V 77.709 C 72.575,67.71 97.011,56.26 126.767,56.26 c 29.755,0 54.191,11.45 69.86,21.449 v 98.115 c -15.669,9.999 -40.105,21.449 -69.86,21.449 -29.756,-0.001 -54.192,-11.451 -69.862,-21.45 z M 211.627,164.832 V 88.701 c 17.513,14.72 26.905,30.2 26.905,38.066 0,7.866 -9.392,23.346 -26.905,38.065 z"
           inkscape:connector-curvature="0"
           style="fill:#ffffff" />
      </g>
      <g
         id="g7918"
         style="fill:#ffffff" />
      <g
         id="g7920"
         style="fill:#ffffff" />
      <g
         id="g7922"
         style="fill:#ffffff" />
      <g
         id="g7924"
         style="fill:#ffffff" />
      <g
         id="g7926"
         style="fill:#ffffff" />
      <g
         id="g7928"
         style="fill:#ffffff" />
      <g
         id="g7930"
         style="fill:#ffffff" />
      <g
         id="g7932"
         style="fill:#ffffff" />
      <g
         id="g7934"
         style="fill:#ffffff" />
      <g
         id="g7936"
         style="fill:#ffffff" />
      <g
         id="g7938"
         style="fill:#ffffff" />
      <g
         id="g7940"
         style="fill:#ffffff" />
      <g
         id="g7942"
         style="fill:#ffffff" />
      <g
         id="g7944"
         style="fill:#ffffff" />
      <g
         id="g7946"
         style="fill:#ffffff" />
    </g>
  </g>
  <g
     inkscape:groupmode="layer"
     id="layer6"
     inkscape:label="museum"
     sodipodi:insensitive="true"
     style="display:none">
    <path
       transform="matrix(0.78096318,0,0,0.78096318,-156.53126,-301.69983)"
       d="m 279.82274,431.13406 a 34.572693,34.572693 0 1 1 -69.14539,0 34.572693,34.572693 0 1 1 69.14539,0 z"
       sodipodi:ry="34.572693"
       sodipodi:rx="34.572693"
       sodipodi:cy="431.13406"
       sodipodi:cx="245.25005"
       id="path7975"
       style="fill:#a0795d;fill-opacity:1;fill-rule:nonzero;stroke:none;display:inline"
       sodipodi:type="arc" />
    <g
       id="g9542"
       transform="matrix(0.16270093,0,0,0.16270093,-12.95108,30.938285)"
       style="fill:#ffffff">
      <path
         inkscape:connector-curvature="0"
         style="fill:#ffffff"
         d="m 293.74912,95.55051 c 1.166,0.562 2.398,0.827 3.611,0.827 3.103,0 6.083,-1.74 7.52,-4.723 3.98,-8.264 7.165,-17.72 9.471,-28.107 0.997,-4.497 -1.838,-8.951 -6.335,-9.948 -4.501,-1 -8.951,1.838 -9.948,6.335 -2.028,9.137 -4.792,17.375 -8.216,24.485 -1.997,4.15 -0.254,9.133 3.897,11.131 z"
         id="path9439" />
      <path
         sodipodi:nodetypes="sccccccccccsccccccccccccccccsccscsscccsscccsccsccccccccssccssssssscssscccsccccccsccccccccccsc"
         inkscape:connector-curvature="0"
         id="path9441"
         d="m 279.21875,-128.6875 c -2.89672,-0.0502 -5.85831,0.33156 -8.78125,1.1875 l -2,0.59375 c -15.592,4.567 -24.567,20.9705 -20,36.5625 l 4.3125,14.65625 c 1.666,5.69 4.917,10.63575 9.375,14.34375 -1.171,5.13 -4.2265,9.6805 -8.6875,12.6875 l -9.625,6.5 c -10.662,7.185 -16.789,19.6055 -16,32.4375 l 2.125,34.5 c 0.148,2.4 1.31575,4.62475 3.21875,6.09375 1.472,1.136 3.296,1.75 5.125,1.75 0.536,0 1.05975,-0.05025 1.59375,-0.15625 l 29.9375,-5.90625 c 0.141,0.098 0.2945,0.2165 0.4375,0.3125 -9.347,12.782 -17.43925,26.51425 -24.03125,40.90625 -6.643,14.499 -9.3315,30.7305 -7.8125,46.9375 0.004,0.042 -0.004,0.082 0,0.125 0.548,5.029 1.01975,10.2505 1.46875,15.3125 1.17455,13.2397 2.38225,26.77832 5.25,39.75 5.78603,-0.0864 11.35402,-1.91706 16.94103,-3.59562 -3.34394,-13.11616 -4.35056,-23.5613 -5.59728,-37.62313 -0.118,-1.333 -0.22275,-2.67925 -0.34375,-4.03125 4.714,0.749 10.6325,1.34475 17.5625,1.34375 18.011,-0.001 42.719,-4.06575 70,-20.09375 -0.087,1.355 -0.174,2.7075 -0.25,4.0625 -21.19496,24.04786 -57.46619,33.57782 -94.04387,42.8127 -3.983,2.313 -5.34425,7.42325 -3.03125,11.40625 1.548,2.665 4.34275,4.125 7.21875,4.125 1.422,0 2.8685,-0.359 4.1875,-1.125 27.51088,-4.70011 84.70597,-26.22214 102.76839,-48.0342 0.38405,-12.19523 1.23822,-17.25178 1.15048,-29.4035 -0.3216,-44.539619 -2.14822,-90.38059187 -3.4375,-130.4375 -0.372,-14.04 -11.67275,-25.03125 -25.71875,-25.03125 l -3.96875,0 c -6.885,0 -13.5665,-1.82175 -19.4375,-5.21875 3.397,-6.516 4.38025,-14.284 2.15625,-21.875 L 307,-107.5 c -3.70987,-12.66769 -15.22879,-20.97011 -27.78125,-21.1875 z m -0.5,16.6875 c 3.882,0 7.55675,1.79125 9.96875,4.78125 l -23.375,15.125 -0.84375,-2.9375 c -0.959,-3.277 -0.60775,-6.753 1.03125,-9.75 1.639,-2.997 4.348,-5.166 7.625,-6.125 l 2,-0.59375 c 1.195,-0.35 2.40775,-0.5 3.59375,-0.5 z m 15.71875,20.90625 0.84375,2.96875 c 1.981,6.766 -1.9215,13.86075 -8.6875,15.84375 l -1.96875,0.59375 c -3.278,0.96 -6.755,0.5765 -9.75,-1.0625 -1.5,-0.821 -2.7725,-1.8945 -3.8125,-3.1875 z m 2.78125,32.34375 c 9.191,6.29 20.08675,9.71875 31.34375,9.71875 l 3.96875,0 c 4.938,0 8.89825,3.85875 9.03125,8.84375 0.008,0.252 0.23125,6.4595 0.53125,16.0625 -2.812,-0.795 -5.9735,-0.089 -8.1875,2.125 -3.257,3.257 -3.257,8.52425 0,11.78125 2.207,2.207 3.4375,5.13 3.4375,8.25 0,6.442 -5.2455,11.6875 -11.6875,11.6875 -6.442,0 -11.6875,-5.2455 -11.6875,-11.6875 0,-4.606 -3.73875,-8.3125 -8.34375,-8.3125 -4.605,0 -8.34375,3.7075 -8.34375,8.3125 0,1.632 0.14025,3.2545 0.40625,4.8125 -0.009,0.153 0,0.2825 0,0.4375 0,6.442 -5.2455,11.6875 -11.6875,11.6875 -6.442,0 -11.6875,-5.2455 -11.6875,-11.6875 0,-3.121 1.19925,-6.042 3.40625,-8.25 3.257,-3.257 3.256,-8.52525 0,-11.78125 -3.256,-3.253 -8.52425,-3.256 -11.78125,0 -5.356,5.357 -8.3125,12.45625 -8.3125,20.03125 0,2.931 0.45225,5.7775 1.28125,8.4375 L 246,14.25 l -1.53125,-25 c -0.428,-6.958 2.9065,-13.69875 8.6875,-17.59375 L 262.75,-34.8125 c 7.153,-4.82 12.31875,-11.864 14.84375,-19.875 1.122,0.131 2.243,0.1875 3.375,0.1875 2.781,0 5.60075,-0.3835 8.34375,-1.1875 l 1.96875,-0.59375 c 2.105,-0.616 4.0905,-1.45175 5.9375,-2.46875 z m 46.21875,78.875 c 0.727,25.2 1.4195,51.7235 1.5625,65.1875 -41.665,28.815 -77.3435,24.97625 -90.3125,22.15625 -0.226,-11.373 2.0365,-22.596 6.6875,-32.75 6.691,-14.607 15.024,-28.48925 24.75,-41.28125 0.491,-0.646 1.02075,-1.27075 1.59375,-1.84375 8.427,-0.511 15.891,-4.7 20.75,-11 4.775,3.651 10.7255,5.8125 17.1875,5.8125 6.723,0 12.91525,-2.35825 17.78125,-6.28125 z"
         style="fill:#ffffff" />
    </g>
  </g>
  <g
     inkscape:groupmode="layer"
     id="layer7"
     inkscape:label="landmark"
     sodipodi:insensitive="true"
     style="display:none">
    <path
       transform="matrix(0.78096318,0,0,0.78096318,-156.53126,-301.69983)"
       d="m 279.82274,431.13406 a 34.572693,34.572693 0 1 1 -69.14539,0 34.572693,34.572693 0 1 1 69.14539,0 z"
       sodipodi:ry="34.572693"
       sodipodi:rx="34.572693"
       sodipodi:cy="431.13406"
       sodipodi:cx="245.25005"
       id="path9547"
       style="fill:#a0795d;fill-opacity:1;fill-rule:nonzero;stroke:none;display:inline"
       sodipodi:type="arc" />
    <g
       id="g10421"
       transform="matrix(0.09256216,0,0,0.09256216,11.304226,14.950473)"
       style="fill:#ffffff">
      <g
         id="g10355"
         style="fill:#ffffff">
        <g
           id="g10357"
           style="fill:#ffffff">
          <polygon
             id="polygon10359"
             points="368.279,32.941 325.198,32.941 325.198,0 277.538,0 277.538,32.941 234.459,32.941 234.459,0 186.798,0 186.798,32.941 143.718,32.941 143.718,0 96.058,0 96.058,65.891 415.94,65.891 415.94,0 368.279,0 "
             style="fill:#ffffff" />
        </g>
      </g>
      <g
         id="g10367"
         style="fill:#ffffff">
        <g
           id="g10369"
           style="fill:#ffffff">
          <polygon
             id="polygon10371"
             points="141.902,153.147 370.096,153.147 415.94,96.308 96.058,96.308 "
             style="fill:#ffffff" />
        </g>
      </g>
      <g
         id="g10373"
         style="fill:#ffffff">
        <g
           id="g10375"
           style="fill:#ffffff">
          <rect
             id="rect10377"
             height="161.769"
             width="203.66299"
             y="183.56799"
             x="154.173"
             style="fill:#ffffff" />
        </g>
      </g>
      <g
         id="g10379"
         style="fill:#ffffff">
        <g
           id="g10381"
           style="fill:#ffffff">
          <path
             id="path10383"
             d="M 368.577,375.754 H 143.42 c -29.177,0 -52.914,23.737 -52.914,52.914 h 330.985 c 0.001,-29.176 -23.737,-52.914 -52.914,-52.914 z"
             inkscape:connector-curvature="0"
             style="fill:#ffffff" />
        </g>
      </g>
      <g
         id="g10385"
         style="fill:#ffffff" />
      <g
         id="g10387"
         style="fill:#ffffff" />
      <g
         id="g10389"
         style="fill:#ffffff" />
      <g
         id="g10391"
         style="fill:#ffffff" />
      <g
         id="g10393"
         style="fill:#ffffff" />
      <g
         id="g10395"
         style="fill:#ffffff" />
      <g
         id="g10397"
         style="fill:#ffffff" />
      <g
         id="g10399"
         style="fill:#ffffff" />
      <g
         id="g10401"
         style="fill:#ffffff" />
      <g
         id="g10403"
         style="fill:#ffffff" />
      <g
         id="g10405"
         style="fill:#ffffff" />
      <g
         id="g10407"
         style="fill:#ffffff" />
      <g
         id="g10409"
         style="fill:#ffffff" />
      <g
         id="g10411"
         style="fill:#ffffff" />
      <g
         id="g10413"
         style="fill:#ffffff" />
    </g>
  </g>
  <g
     inkscape:groupmode="layer"
     id="layer8"
     inkscape:label="camera"
     style="display:none"
     sodipodi:insensitive="true">
    <path
       transform="matrix(0.78096318,0,0,0.78096318,-156.53126,-301.69983)"
       d="m 279.82274,431.13406 a 34.572693,34.572693 0 1 1 -69.14539,0 34.572693,34.572693 0 1 1 69.14539,0 z"
       sodipodi:ry="34.572693"
       sodipodi:rx="34.572693"
       sodipodi:cy="431.13406"
       sodipodi:cx="245.25005"
       id="path10454"
       style="fill:#a0795d;fill-opacity:1;fill-rule:nonzero;stroke:none;display:inline"
       sodipodi:type="arc"
       inkscape:export-filename="/home/chrono/programacion/liber-dovat.github.io/team_vegas/images/camera.png"
       inkscape:export-xdpi="64"
       inkscape:export-ydpi="64" />
    <image
       y="8.7397461"
       x="10.521271"
       id="image12250"
       xlink:href="file:///home/chrono/programacion/liber-dovat.github.io/team_vegas/images/markers_svg/camera2.png"
       height="48.957458"
       width="48.957458"
       style="fill:#ffffff"
       inkscape:export-filename="/home/chrono/programacion/liber-dovat.github.io/team_vegas/images/camera.png"
       inkscape:export-xdpi="64"
       inkscape:export-ydpi="64" />
  </g>
</svg>
